<?xml version="1.0" encoding="utf-8"?>
<!-- Generator: Adobe Illustrator 22.1.0, SVG Export Plug-In . SVG Version: 6.00 Build 0)  -->
<svg version="1.1" id="Layer_1" xmlns="http://www.w3.org/2000/svg" xmlns:xlink="http://www.w3.org/1999/xlink" x="0px" y="0px"
	 viewBox="0 0 100 100" style="enable-background:new 0 0 100 100;" xml:space="preserve">
<style type="text/css">
	.st0{fill:#0678BE;}
</style>
<path class="st0" d="M66.8,42.4l-15.9-9.2c-0.6-0.4-1.4-0.4-2,0l-15.9,9.2c-0.6,0.4-1,1-1,1.7v18.4c0,0.7,0.4,1.4,1,1.7l15.9,9.2
	c0.3,0.2,0.7,0.3,1,0.3s0.7-0.1,1-0.3l15.9-9.2c0.6-0.4,1-1,1-1.7V44.1C67.8,43.4,67.4,42.8,66.8,42.4z M63.8,61.4l-13.9,8l-13.9-8
	V45.3l13.9-8l13.9,8V61.4z M34.9,29.8h30c0,0,0,0,0,0c0.8,0,1.5-0.7,1.5-1.5c0-0.3-0.1-0.5-0.2-0.7l-2.4-6.3V7.9
	c0-0.8-0.7-1.5-1.5-1.5H37.4c-0.8,0-1.5,0.7-1.5,1.5v13.3l-2.5,6.5c-0.2,0.5-0.1,1,0.2,1.4C33.9,29.6,34.4,29.8,34.9,29.8z
	 M60.8,9.4v11.4H38.9V9.4H60.8z M38.9,21.8h22c0,0.1,1.8,5,1.8,5H37C37,26.8,38.9,21.9,38.9,21.8z M7.9,48.6h19.6
	c0.8,0,1.5-0.7,1.5-1.5V20.2c0-0.8-0.7-1.5-1.5-1.5H7.9c-0.8,0-1.5,0.7-1.5,1.5v26.9C6.4,47.9,7,48.6,7.9,48.6z M9.4,45.6v-5.1H26
	v5.1H9.4z M26,21.7v16.9H9.4V21.7H26z M56.7,76.6H43.1c-4.7,0-8.5,3.8-8.5,8.5s3.8,8.5,8.5,8.5h13.6c4.7,0,8.5-3.8,8.5-8.5
	C65.2,80.4,61.4,76.6,56.7,76.6z M56.7,90.6H43.1c-3,0-5.5-2.5-5.5-5.5c0-3,2.5-5.5,5.5-5.5h13.6c3,0,5.5,2.5,5.5,5.5
	S59.7,90.6,56.7,90.6z M47.4,85.1c0,0.6-0.4,1-1,1h-1.2v1.2c0,0.6-0.4,1-1,1s-1-0.4-1-1v-1.2h-1.2c-0.6,0-1-0.4-1-1s0.4-1,1-1h1.2
	v-1.2c0-0.6,0.4-1,1-1s1,0.4,1,1v1.2h1.2C47,84.1,47.4,84.5,47.4,85.1z M52.6,85.1c0,0.6-0.4,1-1,1H51c-0.6,0-1-0.4-1-1s0.4-1,1-1
	h0.6C52.2,84.1,52.6,84.5,52.6,85.1z M57.6,85.1c0,0.6-0.4,1-1,1H56c-0.6,0-1-0.4-1-1s0.4-1,1-1h0.6C57.2,84.1,57.6,84.5,57.6,85.1z
	 M91.9,62.4H77.3c0-0.6-0.1-1.6-0.8-1.6h-2.5c-0.2,0-0.4,0.1-0.5,0.2c-0.2,0.2-0.4,0.7-0.4,1.4h-0.7c-1,0-2.2,0.7-2.2,2.5v12
	c0,1.9,1.2,2.5,2.2,2.5h19.5c0.5,0,2.1-0.2,2.1-2.5v-12C94,62.6,92.6,62.4,91.9,62.4z M74.2,61.7h2.1c0,0.1,0.1,0.3,0.1,0.6h-2.2
	C74.1,62.1,74.1,61.9,74.2,61.7z M91,76.4H73.2v-11H91V76.4z M88,75.1c0.9,0,1.5-0.7,1.5-1.5S88.8,72,88,72s-1.5,0.7-1.5,1.5
	S87.1,75.1,88,75.1z M88,73c0.3,0,0.5,0.2,0.5,0.5s-0.2,0.5-0.5,0.5s-0.5-0.2-0.5-0.5S87.7,73,88,73z M82.2,74.8
	c2.2,0,4.1-1.8,4.1-4.1c0-2.2-1.8-4.1-4.1-4.1s-4.1,1.8-4.1,4.1C78.2,73,80,74.8,82.2,74.8z M82.2,67.7c1.7,0,3.1,1.4,3.1,3.1
	s-1.4,3.1-3.1,3.1s-3.1-1.4-3.1-3.1S80.5,67.7,82.2,67.7z M28.8,61.9H6.9c-0.8,0-1.5,0.7-1.5,1.5v14.7c0,0.8,0.7,1.5,1.5,1.5h5.4
	v1.2l-0.8,2.4c-0.2,0.5-0.1,1,0.2,1.4c0.3,0.4,0.7,0.6,1.2,0.6h9.9c0.5,0,0.9-0.2,1.2-0.6s0.4-0.9,0.2-1.4l-0.8-2.4v-1.2h5.4
	c0.8,0,1.5-0.7,1.5-1.5V63.4C30.3,62.5,29.7,61.9,28.8,61.9z M15,82.2l0.2-0.7h5.2l0.2,0.7H15z M20.4,80.6h-5v-1h5V80.6z M27.3,76.6
	H8.4V64.9h18.9L27.3,76.6L27.3,76.6z M93.1,35.7h-2.4v-6.1c0-0.6-0.4-1-1-1H74.8c-0.6,0-1,0.4-1,1v6.1h-2.4c-0.8,0-1.5,0.7-1.5,1.5
	v10.5c0,0.8,0.7,1.5,1.5,1.5h21.7c0.8,0,1.5-0.7,1.5-1.5V37.2C94.6,36.4,93.9,35.7,93.1,35.7z M75.8,30.7h12.9v5.1H75.8V30.7z
	 M91.6,46.3H72.9v-7.5h18.7V46.3z M75.7,41.7c0-0.3,0.2-0.5,0.5-0.5h1.5c0.3,0,0.5,0.2,0.5,0.5s-0.2,0.5-0.5,0.5h-1.5
	C76,42.2,75.7,42,75.7,41.7z M75.7,43.8c0-0.3,0.2-0.5,0.5-0.5h1.5c0.3,0,0.5,0.2,0.5,0.5s-0.2,0.5-0.5,0.5h-1.5
	C76,44.3,75.7,44.1,75.7,43.8z M87.6,43.5c0.8,0,1.5-0.7,1.5-1.5s-0.7-1.5-1.5-1.5s-1.5,0.7-1.5,1.5S86.8,43.5,87.6,43.5z
	 M87.6,41.6c0.3,0,0.5,0.2,0.5,0.5s-0.2,0.5-0.5,0.5s-0.5-0.2-0.5-0.5S87.3,41.6,87.6,41.6z M77.2,32.4c0-0.1,0.1-0.2,0.2-0.2H87
	c0.1,0,0.2,0.1,0.2,0.2s-0.1,0.2-0.2,0.2h-9.5C77.4,32.7,77.2,32.6,77.2,32.4z M87.3,34c0,0.1-0.1,0.2-0.2,0.2h-9.5
	c-0.1,0-0.2-0.1-0.2-0.2s0.1-0.2,0.2-0.2H87C87.2,33.7,87.3,33.8,87.3,34z M17.7,41.4c-0.9,0-1.7,0.8-1.7,1.7s0.8,1.7,1.7,1.7
	s1.7-0.8,1.7-1.7S18.6,41.4,17.7,41.4z M17.7,43.8c-0.4,0-0.7-0.3-0.7-0.7s0.3-0.7,0.7-0.7s0.7,0.3,0.7,0.7S18.1,43.8,17.7,43.8z
	 M49.9,65.6c-5.6,0-10.2-4.6-10.2-10.2c0-4.8,3.2-7.9,6-10.7c1.9-1.9,3.7-3.7,4.2-5.7c0.5,2,2.3,3.8,4.2,5.7c2.8,2.8,6,6,6,10.7
	C60.1,61,55.5,65.6,49.9,65.6"/>
</svg>
