<?xml version="1.0" encoding="UTF-8"?><svg xmlns="http://www.w3.org/2000/svg" xmlns:xlink="http://www.w3.org/1999/xlink" fill-opacity="1" color-rendering="auto" color-interpolation="auto" text-rendering="auto" stroke="black" stroke-linecap="square" width="968" stroke-miterlimit="10" shape-rendering="auto" stroke-opacity="1" fill="black" stroke-dasharray="none" font-weight="normal" stroke-width="1" height="535" font-family="'Dialog'" font-style="normal" stroke-linejoin="miter" font-size="12px" stroke-dashoffset="0" image-rendering="auto">
  <!--Generated by ySVG 2.6-->
  <defs id="genericDefs"/>
  <g>
    <defs id="defs1">
      <clipPath clipPathUnits="userSpaceOnUse" id="clipPath1">
        <path d="M0 0 L968 0 L968 535 L0 535 L0 0 Z"/>
      </clipPath>
      <clipPath clipPathUnits="userSpaceOnUse" id="clipPath2">
        <path d="M-15 -15 L953 -15 L953 520 L-15 520 L-15 -15 Z"/>
      </clipPath>
    </defs>
    <g fill="white" text-rendering="geometricPrecision" shape-rendering="geometricPrecision" transform="translate(15,15)" stroke="white">
      <rect x="-15" width="968" height="535" y="-15" clip-path="url(#clipPath2)" stroke="none"/>
    </g>
    <g fill="rgb(255,111,64)" text-rendering="geometricPrecision" shape-rendering="geometricPrecision" transform="matrix(1,0,0,1,15,15)" stroke="rgb(255,111,64)">
      <path d="M780 375 L937.6602 375 L937.6602 415 L780 415 Z" stroke="none" clip-path="url(#clipPath2)"/>
    </g>
    <g stroke-linecap="butt" transform="matrix(1,0,0,1,15,15)" fill="white" text-rendering="geometricPrecision" font-family="sans-serif" shape-rendering="geometricPrecision" stroke="white" stroke-miterlimit="1.45">
      <text x="796.5801" xml:space="preserve" y="399.5352" clip-path="url(#clipPath2)" stroke="none">@drupal-js-sdk/auth</text>
    </g>
    <g fill="rgb(0,121,210)" text-rendering="geometricPrecision" shape-rendering="geometricPrecision" transform="matrix(1,0,0,1,15,15)" stroke="rgb(0,121,210)">
      <path d="M390 255 L547.6602 255 L547.6602 295 L390 295 Z" stroke="none" clip-path="url(#clipPath2)"/>
    </g>
    <g stroke-linecap="butt" transform="matrix(1,0,0,1,15,15)" fill="white" text-rendering="geometricPrecision" font-family="sans-serif" shape-rendering="geometricPrecision" stroke="white" stroke-miterlimit="1.45">
      <text x="407.0283" xml:space="preserve" y="279.5352" clip-path="url(#clipPath2)" stroke="none">@drupal-js-sdk/core</text>
    </g>
    <g fill="rgb(0,121,210)" text-rendering="geometricPrecision" shape-rendering="geometricPrecision" transform="matrix(1,0,0,1,15,15)" stroke="rgb(0,121,210)">
      <path d="M195 165 L352.6602 165 L352.6602 205 L195 205 Z" stroke="none" clip-path="url(#clipPath2)"/>
    </g>
    <g stroke-linecap="butt" transform="matrix(1,0,0,1,15,15)" fill="white" text-rendering="geometricPrecision" font-family="sans-serif" shape-rendering="geometricPrecision" stroke="white" stroke-miterlimit="1.45">
      <text x="214.7266" xml:space="preserve" y="189.5352" clip-path="url(#clipPath2)" stroke="none">@drupal-js-sdk/xhr</text>
    </g>
    <g fill="rgb(0,121,210)" text-rendering="geometricPrecision" shape-rendering="geometricPrecision" transform="matrix(1,0,0,1,15,15)" stroke="rgb(0,121,210)">
      <path d="M390 165 L547.6602 165 L547.6602 205 L390 205 Z" stroke="none" clip-path="url(#clipPath2)"/>
    </g>
    <g stroke-linecap="butt" transform="matrix(1,0,0,1,15,15)" fill="white" text-rendering="geometricPrecision" font-family="sans-serif" shape-rendering="geometricPrecision" stroke="white" stroke-miterlimit="1.45">
      <text x="397.7441" xml:space="preserve" y="189.5352" clip-path="url(#clipPath2)" stroke="none">@drupal-js-sdk/storage</text>
    </g>
    <g fill="rgb(255,111,64)" text-rendering="geometricPrecision" shape-rendering="geometricPrecision" transform="matrix(1,0,0,1,15,15)" stroke="rgb(255,111,64)">
      <path d="M390 360 L547.6602 360 L547.6602 400 L390 400 Z" stroke="none" clip-path="url(#clipPath2)"/>
    </g>
    <g stroke-linecap="butt" transform="matrix(1,0,0,1,15,15)" fill="white" text-rendering="geometricPrecision" font-family="sans-serif" shape-rendering="geometricPrecision" stroke="white" stroke-miterlimit="1.45">
      <text x="403.1934" xml:space="preserve" y="384.5352" clip-path="url(#clipPath2)" stroke="none">@drupal-js-sdk/menu</text>
    </g>
    <g fill="purple" text-rendering="geometricPrecision" shape-rendering="geometricPrecision" transform="matrix(1,0,0,1,15,15)" stroke="purple">
      <path d="M390 465 L547.6602 465 L547.6602 505 L390 505 Z" stroke="none" clip-path="url(#clipPath2)"/>
    </g>
    <g stroke-linecap="butt" transform="matrix(1,0,0,1,15,15)" fill="white" text-rendering="geometricPrecision" font-family="sans-serif" shape-rendering="geometricPrecision" stroke="white" stroke-miterlimit="1.45">
      <text x="427.8818" xml:space="preserve" y="489.5352" clip-path="url(#clipPath2)" stroke="none">drupal-js-sdk</text>
    </g>
    <g fill="rgb(255,111,64)" text-rendering="geometricPrecision" shape-rendering="geometricPrecision" transform="matrix(1,0,0,1,15,15)" stroke="rgb(255,111,64)">
      <path d="M0 375 L157.6602 375 L157.6602 415 L0 415 Z" stroke="none" clip-path="url(#clipPath2)"/>
    </g>
    <g stroke-linecap="butt" transform="matrix(1,0,0,1,15,15)" fill="white" text-rendering="geometricPrecision" font-family="sans-serif" shape-rendering="geometricPrecision" stroke="white" stroke-miterlimit="1.45">
      <text x="18.3672" xml:space="preserve" y="399.5352" clip-path="url(#clipPath2)" stroke="none">@drupal-js-sdk/role</text>
    </g>
    <g fill="rgb(255,111,64)" text-rendering="geometricPrecision" shape-rendering="geometricPrecision" transform="matrix(1,0,0,1,15,15)" stroke="rgb(255,111,64)">
      <path d="M585 360 L742.6602 360 L742.6602 400 L585 400 Z" stroke="none" clip-path="url(#clipPath2)"/>
    </g>
    <g stroke-linecap="butt" transform="matrix(1,0,0,1,15,15)" fill="white" text-rendering="geometricPrecision" font-family="sans-serif" shape-rendering="geometricPrecision" stroke="white" stroke-miterlimit="1.45">
      <text x="591.4375" xml:space="preserve" y="384.5352" clip-path="url(#clipPath2)" stroke="none">@drupal-js-sdk/settings</text>
    </g>
    <g stroke-linecap="butt" transform="matrix(1,0,0,1,15,15)" fill="rgb(0,121,210)" text-rendering="geometricPrecision" shape-rendering="geometricPrecision" stroke="rgb(0,121,210)" stroke-miterlimit="1.45">
      <path fill="none" d="M379.5143 0 L558.1459 0 L558.1459 40 L379.5143 40 Z" clip-path="url(#clipPath2)"/>
      <text x="391.0908" y="24.5352" clip-path="url(#clipPath2)" fill="black" font-family="sans-serif" stroke="none" xml:space="preserve">@drupal-js-sdk/interfaces</text>
    </g>
    <g stroke-linecap="butt" transform="matrix(1,0,0,1,15,15)" fill="rgb(0,121,210)" text-rendering="geometricPrecision" shape-rendering="geometricPrecision" stroke="rgb(0,121,210)" stroke-miterlimit="1.45">
      <path fill="none" d="M390 75 L547.6602 75 L547.6602 115 L390 115 Z" clip-path="url(#clipPath2)"/>
      <text x="405.1914" y="99.5352" clip-path="url(#clipPath2)" fill="black" font-family="sans-serif" stroke="none" xml:space="preserve">@drupal-js-sdk/error</text>
    </g>
    <g fill="rgb(255,111,64)" text-rendering="geometricPrecision" shape-rendering="geometricPrecision" transform="matrix(1,0,0,1,15,15)" stroke="rgb(255,111,64)">
      <path d="M195 360 L352.6602 360 L352.6602 400 L195 400 Z" stroke="none" clip-path="url(#clipPath2)"/>
    </g>
    <g stroke-linecap="butt" transform="matrix(1,0,0,1,15,15)" fill="white" text-rendering="geometricPrecision" font-family="sans-serif" shape-rendering="geometricPrecision" stroke="white" stroke-miterlimit="1.45">
      <text x="208.1611" xml:space="preserve" y="384.5352" clip-path="url(#clipPath2)" stroke="none">@drupal-js-sdk/entity</text>
    </g>
    <g stroke-linecap="butt" transform="matrix(1,0,0,1,15,15)" fill="rgb(30,41,59)" text-rendering="geometricPrecision" shape-rendering="geometricPrecision" stroke="rgb(30,41,59)" stroke-miterlimit="1.45">
      <path fill="none" d="M498.8301 295 L498.8301 320 L858.8301 320 L858.8301 366.9731" clip-path="url(#clipPath2)"/>
    </g>
    <g stroke-linecap="butt" transform="matrix(1,0,0,1,15,15)" fill="rgb(30,41,59)" text-rendering="geometricPrecision" shape-rendering="geometricPrecision" stroke="rgb(30,41,59)" stroke-miterlimit="1.45">
      <path d="M858.8301 374.9731 L863.8301 362.9731 L858.8301 365.9731 L853.8301 362.9731 Z" stroke="none" clip-path="url(#clipPath2)"/>
      <path fill="none" d="M273.8301 205 L273.8301 230 L453.8301 230 L453.8301 246.9512" clip-path="url(#clipPath2)"/>
      <path d="M453.8301 254.9512 L458.8301 242.9512 L453.8301 245.9512 L448.8301 242.9512 Z" clip-path="url(#clipPath2)" stroke="none"/>
      <path fill="none" d="M468.8301 205 L468.8301 246.9512" clip-path="url(#clipPath2)"/>
      <path d="M468.8301 254.9512 L473.8301 242.9512 L468.8301 245.9512 L463.8301 242.9512 Z" clip-path="url(#clipPath2)" stroke="none"/>
      <path fill="none" d="M468.8301 295 L468.8301 351.9683" clip-path="url(#clipPath2)"/>
      <path d="M468.8301 359.9683 L473.8301 347.9683 L468.8301 350.9683 L463.8301 347.9683 Z" clip-path="url(#clipPath2)" stroke="none"/>
      <path fill="none" d="M468.8301 400 L468.8301 456.9683" clip-path="url(#clipPath2)"/>
      <path d="M468.8301 464.9683 L473.8301 452.9683 L468.8301 455.9683 L463.8301 452.9683 Z" clip-path="url(#clipPath2)" stroke="none"/>
      <path fill="none" d="M858.8301 415 L858.8301 440 L498.8301 440 L498.8301 456.9512" clip-path="url(#clipPath2)"/>
      <path d="M498.8301 464.9512 L503.8301 452.9512 L498.8301 455.9512 L493.8301 452.9512 Z" clip-path="url(#clipPath2)" stroke="none"/>
      <path fill="none" d="M438.8301 295 L438.8301 320 L78.8301 320 L78.8301 366.9731" clip-path="url(#clipPath2)"/>
      <path d="M78.8301 374.9731 L83.8301 362.9731 L78.8301 365.9731 L73.8301 362.9731 Z" clip-path="url(#clipPath2)" stroke="none"/>
      <path fill="none" d="M78.8301 415 L78.8301 440 L438.8301 440 L438.8301 456.9512" clip-path="url(#clipPath2)"/>
      <path d="M438.8301 464.9512 L443.8301 452.9512 L438.8301 455.9512 L433.8301 452.9512 Z" clip-path="url(#clipPath2)" stroke="none"/>
      <path fill="none" d="M483.8301 295 L483.8301 335 L663.8301 335 L663.8301 351.9512" clip-path="url(#clipPath2)"/>
      <path d="M663.8301 359.9512 L668.8301 347.9512 L663.8301 350.9512 L658.8301 347.9512 Z" clip-path="url(#clipPath2)" stroke="none"/>
      <path fill="none" d="M663.8301 400 L663.8301 425 L483.8301 425 L483.8301 456.9609" clip-path="url(#clipPath2)"/>
      <path d="M483.8301 464.9609 L488.8301 452.9609 L483.8301 455.9609 L478.8301 452.9609 Z" clip-path="url(#clipPath2)" stroke="none"/>
      <path fill="none" d="M468.8301 40 L468.8301 66.9658" clip-path="url(#clipPath2)"/>
      <path d="M468.8301 74.9658 L473.8301 62.9658 L468.8301 65.9658 L463.8301 62.9658 Z" clip-path="url(#clipPath2)" stroke="none"/>
      <path fill="none" d="M453.8301 115 L453.8301 140 L273.8301 140 L273.8301 156.9512" clip-path="url(#clipPath2)"/>
      <path d="M273.8301 164.9512 L278.8301 152.9512 L273.8301 155.9512 L268.8301 152.9512 Z" clip-path="url(#clipPath2)" stroke="none"/>
      <path fill="none" d="M468.8301 115 L468.8301 156.9512" clip-path="url(#clipPath2)"/>
      <path d="M468.8301 164.9512 L473.8301 152.9512 L468.8301 155.9512 L463.8301 152.9512 Z" clip-path="url(#clipPath2)" stroke="none"/>
      <path fill="none" d="M453.8301 295 L453.8301 335 L273.8301 335 L273.8301 351.9512" clip-path="url(#clipPath2)"/>
      <path d="M273.8301 359.9512 L278.8301 347.9512 L273.8301 350.9512 L268.8301 347.9512 Z" clip-path="url(#clipPath2)" stroke="none"/>
      <path fill="none" d="M273.8301 400 L273.8301 425 L453.8301 425 L453.8301 456.9609" clip-path="url(#clipPath2)"/>
      <path d="M453.8301 464.9609 L458.8301 452.9609 L453.8301 455.9609 L448.8301 452.9609 Z" clip-path="url(#clipPath2)" stroke="none"/>
    </g>
  </g>
</svg>
